<svg width="15" height="16" viewBox="0 0 15 16" fill="none" xmlns="http://www.w3.org/2000/svg">
<g clip-path="url(#clip0_41_907)">
<path d="M14.8199 11.6509V11.6346C14.7772 11.5539 14.7184 11.482 14.6466 11.4232C14.5749 11.3644 14.4917 11.3198 14.4019 11.2919C14.312 11.264 14.2173 11.2534 14.1232 11.2608C14.0291 11.2681 13.9374 11.2932 13.8534 11.3345L13.8211 11.3509L13.2306 11.6582C13.1946 11.6771 13.1522 11.6816 13.1127 11.6707C13.0733 11.6598 13.0399 11.6344 13.0199 11.6V11.5873L11.5275 8.98728C11.4691 8.87963 11.3815 8.78904 11.2739 8.72505C11.1663 8.66105 11.0427 8.62602 10.9161 8.62364H7.44899C7.36385 8.62457 7.28122 8.59601 7.21633 8.54322C7.15143 8.49044 7.10864 8.41698 7.09583 8.33637L6.88886 7.03637C6.88402 6.98924 6.89858 6.94216 6.92943 6.90515C6.96028 6.86814 7.00499 6.84412 7.05405 6.83819H9.14266C9.33697 6.8368 9.52306 6.76289 9.66135 6.63217C9.79964 6.50145 9.87922 6.32422 9.88317 6.13819C9.87975 5.9497 9.80004 5.76985 9.66083 5.63654C9.52162 5.50324 9.3338 5.42691 9.13696 5.42364H6.81671C6.76536 5.42455 6.71532 5.40809 6.67538 5.37717C6.63545 5.34624 6.60817 5.30282 6.59836 5.25455L6.3914 3.96546C6.37603 3.87734 6.32487 3.79862 6.24909 3.7465C6.17332 3.69438 6.07908 3.67309 5.98696 3.68728L5.1895 3.80546C5.09685 3.82025 5.01382 3.86888 4.95786 3.94111C4.90191 4.01334 4.8774 4.10354 4.8895 4.19273L5.81228 9.7891C5.8269 9.86891 5.8702 9.94132 5.9347 9.99379C5.9992 10.0463 6.08082 10.0755 6.16545 10.0764H10.4642C10.5298 10.076 10.5944 10.0927 10.6509 10.1248C10.7074 10.1568 10.7538 10.2029 10.7851 10.2582L12.3705 13.2327C12.4125 13.3126 12.4858 13.3734 12.5744 13.4017C12.663 13.4299 12.7597 13.4235 12.8433 13.3836L14.5104 12.56C14.5932 12.5199 14.6669 12.4646 14.7273 12.3971C14.7877 12.3297 14.8336 12.2515 14.8624 12.167C14.8912 12.0826 14.9022 11.9935 14.8949 11.9049C14.8876 11.8163 14.8621 11.73 14.8199 11.6509Z" fill="#9747FF"/>
<path d="M10.2058 10.7327C10.1172 11.47 9.82413 12.1711 9.35693 12.7632C8.88974 13.3553 8.26551 13.8168 7.54909 14.0999C6.83266 14.3829 6.05017 14.477 5.28288 14.3726C4.5156 14.2681 3.79152 13.9689 3.18584 13.5059C2.58016 13.0429 2.11499 12.4331 1.83863 11.7397C1.56226 11.0464 1.4848 10.2949 1.61428 9.56319C1.74376 8.8315 2.07546 8.14636 2.57493 7.57892C3.0744 7.01148 3.72342 6.58244 4.45457 6.33637L4.22672 4.95819H4.15457L3.90583 5.02728C2.99377 5.33299 2.17532 5.85089 1.52401 6.53445C0.8727 7.21801 0.408942 8.04581 0.174408 8.94346C-0.0601258 9.84112 -0.0580889 10.7805 0.180336 11.6772C0.418762 12.5739 0.886105 13.3999 1.54037 14.0809C2.19464 14.7618 3.01534 15.2765 3.92871 15.5785C4.84209 15.8806 5.81954 15.9607 6.77322 15.8115C7.7269 15.6623 8.62694 15.2886 9.39247 14.7239C10.158 14.1593 10.765 13.4213 11.159 12.5764L10.2267 10.82C10.2267 10.82 10.2267 10.7327 10.2058 10.7327Z" fill="#9747FF"/>
<path d="M5.3051 3.33455C5.64947 3.33455 5.9861 3.23676 6.27243 3.05356C6.55876 2.87036 6.78192 2.60997 6.91371 2.30531C7.04549 2.00066 7.07997 1.66542 7.01279 1.342C6.94561 1.01859 6.77978 0.721506 6.53628 0.488334C6.29277 0.255161 5.98253 0.096369 5.64478 0.0320369C5.30704 -0.0322952 4.95695 0.000722408 4.6388 0.126914C4.32065 0.253106 4.04872 0.466805 3.8574 0.740986C3.66608 1.01517 3.56396 1.33752 3.56396 1.66727C3.56396 2.10946 3.74741 2.53354 4.07393 2.84621C4.40046 3.15889 4.84333 3.33455 5.3051 3.33455ZM5.3051 0.556364C5.61027 0.556364 5.90294 0.672449 6.11872 0.87908C6.33451 1.08571 6.45574 1.36596 6.45574 1.65818V1.66727C6.45312 1.88463 6.38341 2.09639 6.25539 2.2759C6.12738 2.45542 5.94677 2.59466 5.7363 2.6761C5.52583 2.75755 5.29491 2.77756 5.07259 2.73362C4.85027 2.68968 4.64649 2.58375 4.4869 2.42916C4.32731 2.27458 4.21904 2.07824 4.1757 1.86486C4.13237 1.65149 4.15592 1.4306 4.24339 1.23001C4.33085 1.02942 4.47833 0.858087 4.66725 0.737571C4.85617 0.617055 5.0781 0.552742 5.3051 0.552728V0.556364Z" fill="#9747FF"/>
</g>
<defs>
<clipPath id="clip0_41_907">
<rect width="15" height="16" fill="white"/>
</clipPath>
</defs>
</svg>
