<svg width="16" height="16" viewBox="0 0 16 16" fill="none" xmlns="http://www.w3.org/2000/svg">
<path fill-rule="evenodd" clip-rule="evenodd" d="M8 0C3.58453 0 0 3.58453 0 8C0 12.4155 3.58453 16 8 16C12.4155 16 16 12.4155 16 8C16 3.58453 12.4155 0 8 0ZM8 1.06667C11.8267 1.06667 14.9333 4.17333 14.9333 8C14.9333 11.8267 11.8267 14.9333 8 14.9333C4.17333 14.9333 1.06667 11.8267 1.06667 8C1.06667 4.17333 4.17333 1.06667 8 1.06667ZM7.46667 2.66667V7.5584C7.46667 7.9824 7.6352 8.38933 7.93547 8.6896L10.8229 11.5771C11.0309 11.7851 11.3691 11.7851 11.5771 11.5771C11.7851 11.3691 11.7851 11.0309 11.5771 10.8229L8.6896 7.93547C8.58933 7.8352 8.53333 7.69973 8.53333 7.5584V2.66667C8.53333 2.37227 8.2944 2.13333 8 2.13333C7.7056 2.13333 7.46667 2.37227 7.46667 2.66667Z" fill="#9747FF"/>
</svg>
