<svg width="16" height="16" viewBox="0 0 16 16" fill="none" xmlns="http://www.w3.org/2000/svg">
<path fill-rule="evenodd" clip-rule="evenodd" d="M1.34084 8.01064C1.35859 8.01064 1.37528 8.01206 1.39268 8.01206C1.41008 8.01206 1.42818 8.01206 1.44452 8.01064L1.95117 9.19837H0.834006L1.34084 8.01064ZM1.39268 6.60621C1.48205 6.60617 1.56942 6.63267 1.64376 6.68235C1.7181 6.73204 1.77605 6.80267 1.81031 6.88533C1.84457 6.96799 1.85359 7.05897 1.83622 7.14676C1.81886 7.23455 1.7759 7.31522 1.71277 7.37856C1.64963 7.44191 1.56917 7.48509 1.48153 7.50265C1.3939 7.52021 1.30303 7.51136 1.22042 7.47721C1.13781 7.44307 1.06716 7.38517 1.01741 7.31082C0.967649 7.23648 0.941017 7.14904 0.940877 7.05954C0.941018 6.93959 0.988663 6.82459 1.07336 6.73977C1.15806 6.65495 1.2729 6.60724 1.39268 6.6071V6.60621ZM8.47967 0.521102L14.9224 3.23255L8.47967 5.94399L2.0371 3.23255L8.47967 0.521102ZM13.1038 7.55945V4.54045L8.57695 6.44568C8.54633 6.45846 8.51347 6.46505 8.48029 6.46505C8.44711 6.46505 8.41426 6.45846 8.38363 6.44568L3.85584 4.54045V7.55945H13.1038ZM12.9263 9.19837H4.0323C3.98559 9.19809 3.94087 9.17938 3.90784 9.1463C3.8748 9.11322 3.85612 9.06844 3.85584 9.02166V8.05953H13.1038V9.02166C13.1036 9.06862 13.0847 9.11356 13.0515 9.14667C13.0182 9.17978 12.9732 9.19837 12.9263 9.19837ZM0.455877 9.69845H2.32948C2.37063 9.69832 2.41111 9.68802 2.44733 9.66845C2.48354 9.64888 2.51437 9.62065 2.53707 9.58628C2.55976 9.5519 2.57363 9.51245 2.57743 9.47141C2.58123 9.43038 2.57484 9.38904 2.55884 9.35108L1.91975 7.8526C2.07178 7.7513 2.19145 7.60829 2.26446 7.44068C2.33748 7.27308 2.36074 7.08795 2.33147 6.90746C2.30221 6.72696 2.22165 6.55872 2.09943 6.42285C1.97721 6.28699 1.8185 6.18925 1.64228 6.14132V3.6089L3.35664 4.33049V9.02166C3.35683 9.20107 3.42807 9.37307 3.55474 9.49995C3.6814 9.62683 3.85315 9.69822 4.0323 9.69845H12.9272C13.1064 9.69831 13.2783 9.62697 13.4051 9.50009C13.5318 9.37321 13.6032 9.20114 13.6034 9.02166V4.33032L15.6639 3.46295C15.7092 3.44387 15.7479 3.41183 15.7751 3.37084C15.8023 3.32986 15.8168 3.28175 15.8168 3.23255C15.8168 3.18335 15.8023 3.13524 15.7751 3.09425C15.7479 3.05327 15.7092 3.02123 15.6639 3.00215L8.57642 0.0195953C8.54583 0.00666292 8.51296 0 8.47976 0C8.44655 0 8.41369 0.00666292 8.3831 0.0195953L1.29593 3.00215C1.25049 3.02124 1.21171 3.05338 1.18448 3.0945C1.15724 3.13563 1.14278 3.18391 1.1429 3.23326V6.14061C0.966692 6.18856 0.808002 6.28632 0.685803 6.42219C0.563603 6.55807 0.483065 6.72631 0.453818 6.90681C0.42457 7.0873 0.447851 7.27241 0.520876 7.44001C0.593901 7.60761 0.71358 7.7506 0.865606 7.85189L0.226337 9.35108C0.210333 9.38906 0.203951 9.43041 0.207759 9.47146C0.211567 9.51251 0.225447 9.55197 0.248164 9.58635C0.270881 9.62073 0.301731 9.64896 0.337969 9.66851C0.374208 9.68807 0.414712 9.69835 0.455877 9.69845ZM15.5008 11.0904C15.5007 11.1867 15.4625 11.2791 15.3945 11.3472C15.3265 11.4152 15.2343 11.4535 15.1381 11.4536H2.92934C2.49618 11.4536 2.08076 11.626 1.77447 11.9327C1.46818 12.2394 1.29611 12.6554 1.29611 13.0892C1.29611 13.523 1.46818 13.939 1.77447 14.2457C2.08076 14.5524 2.49618 14.7247 2.92934 14.7247H15.1381C15.2343 14.7248 15.3265 14.763 15.3945 14.8311C15.4625 14.8992 15.5007 14.9915 15.5008 15.0877V15.1368C15.5007 15.2331 15.4625 15.3254 15.3945 15.3935C15.3265 15.4615 15.2343 15.4998 15.1381 15.4998H2.92934C2.61321 15.4998 2.30019 15.4375 2.00813 15.3163C1.71607 15.1952 1.45069 15.0176 1.22716 14.7938C1.00363 14.5699 0.82631 14.3042 0.705335 14.0117C0.58436 13.7192 0.522094 13.4057 0.522094 13.0892C0.522094 12.7726 0.58436 12.4591 0.705335 12.1667C0.82631 11.8742 1.00363 11.6084 1.22716 11.3846C1.45069 11.1607 1.71607 10.9832 2.00813 10.862C2.30019 10.7409 2.61321 10.6785 2.92934 10.6785H15.1381C15.2343 10.6786 15.3265 10.7168 15.3945 10.7849C15.4625 10.853 15.5007 10.9453 15.5008 11.0416V11.0904ZM11.2934 11.9537V12.956L11.5471 12.7631C11.5905 12.73 11.6435 12.712 11.698 12.712C11.7526 12.712 11.8056 12.73 11.8489 12.7631L12.1026 12.956V11.9537H11.2934ZM14.6023 14.2248C14.4278 13.4784 14.4232 12.7022 14.589 11.9537H12.6022V13.4597C12.6022 13.5062 12.5892 13.5518 12.5647 13.5914C12.5402 13.6309 12.5052 13.6629 12.4636 13.6836C12.4219 13.7042 12.3754 13.7129 12.3291 13.7085C12.2828 13.7041 12.2387 13.6869 12.2017 13.6588L11.698 13.2762L11.1947 13.6588C11.1578 13.6873 11.1137 13.7048 11.0673 13.7094C11.0209 13.714 10.9741 13.7054 10.9324 13.6846C10.8906 13.6638 10.8556 13.6317 10.8312 13.592C10.8068 13.5522 10.794 13.5063 10.7944 13.4597V11.9537H2.93005C2.63177 11.9575 2.34697 12.0787 2.13735 12.2913C1.92774 12.5038 1.8102 12.7905 1.8102 13.0893C1.8102 13.388 1.92774 13.6747 2.13735 13.8872C2.34697 14.0998 2.63177 14.2211 2.93005 14.2248H14.6023ZM15.1381 10.1786H2.92934C2.54574 10.1756 2.16533 10.2487 1.81007 10.3936C1.4548 10.5385 1.13169 10.7525 0.859377 11.023C0.587063 11.2936 0.370927 11.6155 0.223432 11.9701C0.0759368 12.3248 0 12.7051 0 13.0893C0 13.4734 0.0759368 13.8538 0.223432 14.2084C0.370927 14.563 0.587063 14.8849 0.859377 15.1555C1.13169 15.4261 1.4548 15.64 1.81007 15.7849C2.16533 15.9298 2.54574 16.0029 2.92934 15.9999H15.1381C15.3666 15.9996 15.5857 15.9086 15.7472 15.7468C15.9088 15.585 15.9997 15.3656 16 15.1368V15.0877C15.9997 14.8589 15.9088 14.6396 15.7472 14.4778C15.5857 14.316 15.3666 14.225 15.1381 14.2248H15.1165C14.9223 13.4809 14.9172 12.7001 15.1015 11.9537H15.1381C15.3666 11.9534 15.5857 11.8624 15.7473 11.7005C15.9089 11.5387 15.9998 11.3193 16 11.0904V11.0416C15.9997 10.8127 15.9088 10.5934 15.7472 10.4316C15.5857 10.2698 15.3666 10.1789 15.1381 10.1786Z" fill="#9747FF"/>
</svg>
