<svg width="12" height="16" viewBox="0 0 12 16" fill="none" xmlns="http://www.w3.org/2000/svg">
<g clip-path="url(#clip0_41_911)">
<path d="M3.99099 13.7561H1.99553C1.88535 13.7561 1.7959 13.6688 1.7959 13.5607V11.6098C1.7959 11.5023 1.88517 11.4146 1.99553 11.4146H3.99117C4.10135 11.4146 4.19081 11.5019 4.19081 11.6098V13.5609C4.19063 13.6688 4.10135 13.7561 3.99099 13.7561ZM2.19499 13.3661H3.79135V11.805H2.19499V13.3661Z" fill="#9747FF"/>
<path d="M9.87786 6.04868H5.08859C5.0335 6.04868 4.98877 6.00495 4.98877 5.95108V5.56086C4.98877 5.50681 5.0335 5.46326 5.08859 5.46326H9.87786C9.93332 5.46326 9.97786 5.50681 9.97786 5.56086V5.95108C9.97768 6.00495 9.93313 6.04868 9.87786 6.04868Z" fill="#9747FF"/>
<path d="M9.87786 9.46312H5.08859C5.0335 9.46312 4.98877 9.41939 4.98877 9.36552V8.97565C4.98877 8.92143 5.0335 8.87805 5.08859 8.87805H9.87786C9.93332 8.87805 9.97786 8.92143 9.97786 8.97565V9.36552C9.97768 9.41939 9.93313 9.46312 9.87786 9.46312Z" fill="#9747FF"/>
<path d="M9.87786 12.878H5.08859C5.0335 12.878 4.98877 12.8339 4.98877 12.7804V12.3902C4.98877 12.336 5.0335 12.2926 5.08859 12.2926H9.87786C9.93332 12.2926 9.97786 12.336 9.97786 12.3902V12.7804C9.97768 12.8339 9.93313 12.878 9.87786 12.878Z" fill="#9747FF"/>
<path d="M10.9755 2.34155H8.68036V2.84893H10.9755C11.2393 2.84893 11.4544 3.05888 11.4544 3.31719V15.0246C11.4544 15.2825 11.2393 15.493 10.9755 15.493H0.997637C0.733637 15.493 0.518727 15.2825 0.518727 15.0246V3.31701C0.518727 3.0587 0.733637 2.84875 0.997637 2.84875H3.29255V2.34137H0.997637C0.446728 2.34137 0 2.77799 0 3.31684V15.0242C0 15.5631 0.446728 15.9999 0.997637 15.9999H10.9755C11.5265 15.9999 11.9731 15.5631 11.9731 15.0242V3.31701C11.9733 2.77817 11.5267 2.34155 10.9755 2.34155Z" fill="#9747FF"/>
<path d="M5.98654 0.507378C6.41545 0.507378 6.76491 0.848889 6.76491 1.26827C6.76491 1.68782 6.41545 2.02933 5.98654 2.02933C5.55745 2.02933 5.20818 1.68782 5.20818 1.26827C5.20818 0.848711 5.55745 0.507378 5.98654 0.507378ZM5.98654 0C5.27036 0 4.68945 0.567822 4.68945 1.26827C4.68945 1.96836 5.27018 2.53671 5.98654 2.53671C6.70309 2.53671 7.28363 1.96853 7.28363 1.26827C7.28363 0.567822 6.70309 0 5.98654 0Z" fill="#9747FF"/>
<path d="M3.79153 5.79143V6.5365H2.19517V4.97561H3.48263L3.86044 4.58539H1.99553C1.88535 4.58539 1.7959 4.6725 1.7959 4.78059V6.73188C1.7959 6.83961 1.88517 6.92708 1.99553 6.92708H3.99117C4.10135 6.92708 4.19081 6.83979 4.19081 6.73188V5.37934L3.79153 5.79143Z" fill="#9747FF"/>
<path d="M3.79153 9.20622V9.95093H2.19517V8.39022H3.48263L3.86044 8H1.99553C1.88535 8 1.7959 8.08729 1.7959 8.1952V10.1467C1.7959 10.2542 1.88517 10.3419 1.99553 10.3419H3.99117C4.10135 10.3419 4.19081 10.2548 4.19081 10.1467V8.79413L3.79153 9.20622Z" fill="#9747FF"/>
<path d="M8.18175 1.30719H6.98029C6.97284 1.49439 6.91429 1.66879 6.8132 1.81457H8.18175C8.31393 1.81457 8.4212 1.91981 8.4212 2.04888V3.02435C8.4212 3.15377 8.31357 3.2583 8.18175 3.2583H3.79157C3.65938 3.2583 3.55211 3.15359 3.55211 3.02435V2.04888C3.55211 1.91963 3.65957 1.81457 3.79157 1.81457H5.16011C5.0592 1.66897 5.00048 1.49439 4.99302 1.30719H3.79157C3.37338 1.30719 3.0332 1.63999 3.0332 2.04888V3.02435C3.0332 3.43341 3.37338 3.76568 3.79157 3.76568H8.18175C8.59993 3.76568 8.94011 3.43341 8.94011 3.02435V2.04888C8.94011 1.63999 8.59993 1.30719 8.18175 1.30719Z" fill="#9747FF"/>
<path d="M2.99313 6.24393C2.98586 6.24393 2.97841 6.24358 2.97113 6.24269C2.90895 6.23593 2.85368 6.20091 2.82186 6.14829L2.49404 5.60909C2.4375 5.51647 2.46859 5.39682 2.5635 5.34189C2.65822 5.28624 2.78059 5.317 2.83695 5.4098L3.03004 5.72713L4.17041 4.54882C4.24622 4.47042 4.37259 4.46722 4.45259 4.54118C4.53259 4.61513 4.53604 4.73851 4.4604 4.81709L3.1384 6.18313C3.10022 6.22189 3.04786 6.24393 2.99313 6.24393Z" fill="#9747FF"/>
<path d="M2.99313 9.65847C2.98586 9.65847 2.97841 9.65811 2.97113 9.6574C2.90895 9.65047 2.85368 9.61545 2.82186 9.56282L2.49404 9.02362C2.4375 8.931 2.46859 8.81154 2.5635 8.75642C2.65822 8.70078 2.78059 8.73171 2.83695 8.82434L3.03004 9.14185L4.17041 7.96336C4.24622 7.88531 4.37259 7.88194 4.45259 7.95571C4.5324 8.02967 4.53604 8.15305 4.4604 8.23198L3.1384 9.59767C3.10022 9.63642 3.04786 9.65847 2.99313 9.65847Z" fill="#9747FF"/>
</g>
<defs>
<clipPath id="clip0_41_911">
<rect width="12" height="16" fill="white"/>
</clipPath>
</defs>
</svg>
