<svg width="36" height="16" viewBox="0 0 36 16" fill="none" xmlns="http://www.w3.org/2000/svg">
<g clip-path="url(#clip0_41_924)">
<path d="M18.0054 6.13647C20.4054 6.13647 22.352 4.75765 22.352 3.06824C22.352 1.37882 20.3987 0 18.0054 0C15.612 0 13.6587 1.37882 13.6587 3.06824C13.6587 4.75765 15.612 6.13647 18.0054 6.13647ZM18.0054 0.941176C19.6654 0.941176 21.0187 1.89647 21.0187 3.06824C21.0187 4.24 19.6654 5.19529 18.0054 5.19529C16.3454 5.19529 14.992 4.24 14.992 3.06824C14.992 1.89647 16.3454 0.941176 18.0054 0.941176Z" fill="#9747FF"/>
<path d="M13.9788 10.0047C13.6122 9.97177 13.2788 10.1506 13.2322 10.4094L12.3122 15.2565C12.2655 15.5153 12.5188 15.7506 12.8855 15.7835C12.9122 15.7835 12.9455 15.7835 12.9722 15.7835C13.2988 15.7835 13.5855 15.6094 13.6322 15.3741L14.5522 10.5271C14.5988 10.2682 14.3455 10.0329 13.9788 10V10.0047Z" fill="#9747FF"/>
<path d="M22.032 10.0047C21.6653 10.0376 21.412 10.2776 21.4587 10.5318L22.3787 15.3788C22.4253 15.6141 22.712 15.7882 23.0387 15.7882C23.0653 15.7882 23.0987 15.7882 23.1253 15.7882C23.492 15.7553 23.7453 15.5153 23.6987 15.2612L22.7787 10.4141C22.732 10.1553 22.3987 9.97646 22.032 10.0094V10.0047Z" fill="#9747FF"/>
<path d="M7.47873 6.48003C9.5654 6.48003 11.2587 5.28473 11.2587 3.81179C11.2587 2.33885 9.5654 1.14355 7.47873 1.14355C5.39206 1.14355 3.69873 2.33885 3.69873 3.81179C3.69873 5.28473 5.39206 6.48003 7.47873 6.48003ZM7.47873 2.08473C8.8254 2.08473 9.9254 2.8612 9.9254 3.81179C9.9254 4.76238 8.8254 5.53885 7.47873 5.53885C6.13206 5.53885 5.03206 4.76238 5.03206 3.81179C5.03206 2.8612 6.13206 2.08473 7.47873 2.08473Z" fill="#9747FF"/>
<path d="M4.09194 9.60944C3.72528 9.5765 3.39194 9.75532 3.34528 10.0141L2.57194 14.113C2.52528 14.3718 2.77861 14.6071 3.14528 14.64C3.17194 14.64 3.20528 14.64 3.23194 14.64C3.55861 14.64 3.84527 14.4659 3.89194 14.2306L4.66527 10.1318C4.71194 9.87297 4.45861 9.63768 4.09194 9.60474V9.60944Z" fill="#9747FF"/>
<path d="M28.532 6.48003C30.6186 6.48003 32.312 5.28473 32.312 3.81179C32.312 2.33885 30.6186 1.14355 28.532 1.14355C26.4453 1.14355 24.752 2.33885 24.752 3.81179C24.752 5.28473 26.4453 6.48003 28.532 6.48003ZM28.532 2.08473C29.8786 2.08473 30.9786 2.8612 30.9786 3.81179C30.9786 4.76238 29.8786 5.53885 28.532 5.53885C27.1853 5.53885 26.0853 4.76238 26.0853 3.81179C26.0853 2.8612 27.1853 2.08473 28.532 2.08473Z" fill="#9747FF"/>
<path d="M35.2055 9.8165C34.8855 8.08944 32.7855 6.79061 30.3255 6.79061H26.7322C25.5989 6.79061 24.5322 7.05885 23.6589 7.55297C22.6789 7.00709 21.4522 6.67767 20.1255 6.67767H15.8789C14.5522 6.67767 13.3255 7.00709 12.3455 7.55297C11.4722 7.05885 10.4055 6.79061 9.2722 6.79061H5.67887C3.21887 6.79061 1.11887 8.09414 0.798869 9.8165L0.00553562 14.113C-0.041131 14.3718 0.212202 14.6071 0.578869 14.64C0.605536 14.64 0.638869 14.64 0.665536 14.64C0.998869 14.64 1.27887 14.4659 1.32554 14.2306L2.11887 9.93414C2.3522 8.67767 3.88554 7.72708 5.67887 7.72708H9.2722C10.0455 7.72708 10.7789 7.90591 11.3922 8.2212C10.7789 8.77179 10.3655 9.44003 10.2255 10.1741L9.2922 15.2471C9.24554 15.5059 9.49887 15.7412 9.86554 15.7741C10.2322 15.8071 10.5655 15.6283 10.6122 15.3694L11.5455 10.2965C11.8255 8.76709 13.6922 7.61414 15.8722 7.61414H20.1189C22.3055 7.61414 24.1655 8.76709 24.4455 10.2965L25.3789 15.3694C25.4255 15.6047 25.7122 15.7788 26.0389 15.7788C26.0655 15.7788 26.0989 15.7788 26.1255 15.7788C26.4922 15.7459 26.7455 15.5106 26.6989 15.2518L25.7655 10.1788C25.6322 9.44473 25.2122 8.7765 24.6055 8.22591C25.2189 7.90591 25.9522 7.73179 26.7255 7.73179H30.3189C32.1122 7.73179 33.6455 8.68238 33.8789 9.93885L34.6722 14.2353C34.7189 14.4706 35.0055 14.6447 35.3322 14.6447C35.3589 14.6447 35.3922 14.6447 35.4189 14.6447C35.7855 14.6118 36.0389 14.3765 35.9922 14.1177L35.1989 9.8212L35.2055 9.8165Z" fill="#9747FF"/>
<path d="M31.9187 9.60944C31.552 9.64238 31.2987 9.88238 31.3454 10.1365L32.1187 14.2353C32.1654 14.4706 32.452 14.6447 32.7787 14.6447C32.8054 14.6447 32.8387 14.6447 32.8654 14.6447C33.232 14.6118 33.4854 14.3718 33.4387 14.1177L32.6654 10.0188C32.6187 9.76002 32.2787 9.5812 31.9187 9.61414V9.60944Z" fill="#9747FF"/>
</g>
<defs>
<clipPath id="clip0_41_924">
<rect width="36" height="16" fill="white"/>
</clipPath>
</defs>
</svg>
