<svg width="20" height="20" viewBox="0 0 20 20" fill="none" xmlns="http://www.w3.org/2000/svg">
<g clip-path="url(#clip0_18_120)">
<path d="M19.8082 5.91581C19.7601 4.86425 19.593 4.14616 19.3489 3.51787C19.1009 2.85861 18.7121 2.26149 18.2096 1.76798C17.7163 1.26548 17.1189 0.876247 16.4597 0.628177C15.8314 0.384277 15.1133 0.217434 14.0617 0.169576C13.0082 0.121498 12.6717 0.109863 9.98877 0.109863C7.30588 0.109863 6.96934 0.121498 5.91581 0.169356C4.86425 0.217434 4.14616 0.384497 3.51787 0.628616C2.85861 0.876686 2.26149 1.26548 1.76798 1.76798C1.26548 2.26127 0.876247 2.85839 0.628177 3.51765C0.384277 4.14616 0.217434 4.86425 0.169576 5.91559C0.121279 6.96934 0.109863 7.30588 0.109863 9.98877C0.109863 12.6719 0.121279 13.0084 0.169576 14.062C0.217434 15.1133 0.384497 15.8316 0.628835 16.4599C0.876906 17.1189 1.2657 17.7163 1.7682 18.2096C2.26149 18.7121 2.85883 19.1011 3.51809 19.3489C4.14638 19.5933 4.86447 19.7601 5.91603 19.8082C6.96956 19.8563 7.3061 19.8677 9.98899 19.8677C12.6719 19.8677 13.0084 19.8565 14.062 19.8082C15.1135 19.7601 15.8316 19.5933 16.4599 19.3489C17.787 18.8359 18.8359 17.7867 19.3489 16.4599C19.5933 15.8314 19.7601 15.1133 19.8082 14.062C19.8563 13.0082 19.8677 12.6717 19.8677 9.98877C19.8677 7.30588 19.8563 6.96934 19.8082 5.91581ZM18.03 13.9809C17.9861 14.9442 17.8252 15.4672 17.6899 15.8153C17.3576 16.677 16.6766 17.3578 15.8151 17.6901C15.4672 17.8254 14.944 17.9863 13.9807 18.0302C12.9393 18.0778 12.6267 18.0877 9.98877 18.0877C7.35066 18.0877 7.03827 18.0778 5.99681 18.0302C5.03373 17.9863 4.51059 17.8254 4.16241 17.6901C3.73345 17.5316 3.34531 17.2792 3.02656 16.951C2.69836 16.6322 2.4459 16.2443 2.28739 15.8151C2.15216 15.4672 1.99125 14.944 1.94734 13.9807C1.89992 12.939 1.88982 12.6267 1.88982 9.98877C1.88982 7.35088 1.89992 7.03849 1.94734 5.99681C1.99147 5.03351 2.15216 4.51059 2.28739 4.16241C2.4459 3.73323 2.69836 3.3451 3.02656 3.02634C3.34531 2.69814 3.73345 2.44568 4.16263 2.28739C4.51059 2.15194 5.03373 1.99125 5.99703 1.94712C7.03849 1.89992 7.35088 1.88982 9.98877 1.88982C12.6267 1.88982 12.9388 1.89992 13.9805 1.94756C14.9438 1.99147 15.4667 2.15238 15.8149 2.28761C16.2439 2.44611 16.632 2.69858 16.9508 3.02656C17.279 3.34531 17.5314 3.73345 17.6897 4.16263C17.8252 4.51059 17.9861 5.03373 18.03 5.99703C18.0774 7.03871 18.0875 7.3511 18.0875 9.98899C18.0875 12.6269 18.0776 12.9391 18.03 13.9809Z" fill="url(#paint0_linear_18_120)"/>
<path d="M9.98858 4.91589C7.18692 4.91589 4.91565 7.18716 4.91565 9.98882C4.91565 12.7905 7.18692 15.0618 9.98858 15.0618C12.7905 15.0618 15.0615 12.7905 15.0615 9.98882C15.0615 7.18716 12.7905 4.91589 9.98858 4.91589ZM9.98858 13.2818C8.1702 13.2816 6.69583 11.8074 6.69583 9.98882C6.69583 8.17022 8.16998 6.69585 9.9888 6.69585C11.8074 6.69607 13.2818 8.17022 13.2818 9.98882C13.2818 11.8074 11.8074 13.2818 9.98858 13.2818Z" fill="url(#paint1_linear_18_120)"/>
<path d="M16.4476 4.71538C16.4476 5.37002 15.9168 5.90084 15.2621 5.90084C14.6073 5.90084 14.0767 5.37002 14.0767 4.71538C14.0767 4.06051 14.6075 3.52991 15.2621 3.52991C15.9168 3.52991 16.4476 4.06073 16.4476 4.71538Z" fill="url(#paint2_linear_18_120)"/>
</g>
<defs>
<linearGradient id="paint0_linear_18_120" x1="1.76794" y1="18.2095" x2="18.2096" y2="1.76787" gradientUnits="userSpaceOnUse">
<stop stop-color="#FFD600"/>
<stop offset="0.5" stop-color="#FF0100"/>
<stop offset="1" stop-color="#D800B9"/>
</linearGradient>
<linearGradient id="paint1_linear_18_120" x1="6.40161" y1="13.576" x2="13.5758" y2="6.40175" gradientUnits="userSpaceOnUse">
<stop stop-color="#FF6400"/>
<stop offset="0.5" stop-color="#FF0100"/>
<stop offset="1" stop-color="#FD0056"/>
</linearGradient>
<linearGradient id="paint2_linear_18_120" x1="14.4238" y1="5.55368" x2="16.1003" y2="3.87712" gradientUnits="userSpaceOnUse">
<stop stop-color="#F30072"/>
<stop offset="1" stop-color="#E50097"/>
</linearGradient>
<clipPath id="clip0_18_120">
<rect width="20" height="20" fill="white"/>
</clipPath>
</defs>
</svg>
