<svg width="12" height="16" viewBox="0 0 12 16" fill="none" xmlns="http://www.w3.org/2000/svg">
<path d="M6.00004 2.80652C4.25751 2.80652 2.83984 4.16111 2.83984 5.82611C2.83984 7.49132 4.25751 8.84591 6.00004 8.84591C7.74269 8.84591 9.16035 7.49132 9.16035 5.82611C9.16035 4.16111 7.74269 2.80652 6.00004 2.80652ZM6.00004 8.00333C4.74374 8.00333 3.72166 7.02663 3.72166 5.82611C3.72166 4.6258 4.74374 3.6491 6.00004 3.6491C7.25646 3.6491 8.27854 4.6258 8.27854 5.82611C8.27854 7.02663 7.25646 8.00333 6.00004 8.00333Z" fill="#9747FF"/>
<path d="M5.99995 0C2.69152 0 0 2.57177 0 5.73289C0 7.97429 2.94104 12.6994 4.69412 15.3166C4.98078 15.7445 5.46883 16 5.99995 16C6.53106 16 7.01912 15.7445 7.30577 15.3166C9.05896 12.6994 12 7.97408 12 5.73289C12 2.57177 9.30837 0 5.99995 0ZM6.56303 14.8624C6.43752 15.0498 6.23224 15.1574 5.99995 15.1574C5.76765 15.1574 5.56237 15.0498 5.43686 14.8624C2.54211 10.5409 0.881816 7.21317 0.881816 5.73289C0.881816 3.03646 3.17785 0.842582 5.99995 0.842582C8.82215 0.842582 11.1182 3.03646 11.1182 5.73289C11.1182 7.21317 9.45789 10.5407 6.56303 14.8624Z" fill="#9747FF"/>
</svg>
