<svg width="20" height="20" viewBox="0 0 20 20" fill="none" xmlns="http://www.w3.org/2000/svg">
<path d="M8.05759 7.88957V7.11901C7.7902 7.08104 7.52039 7.0615 7.25037 7.06018C3.94708 7.06018 1.25958 9.74812 1.25958 13.0514C1.25958 15.0777 2.27228 16.8715 3.81712 17.9562C2.78269 16.85 2.20752 15.3918 2.2084 13.8773C2.2084 10.621 4.8195 7.96553 8.05759 7.88957Z" fill="#00F2EA"/>
<path d="M8.19894 16.6131C9.67288 16.6131 10.875 15.4406 10.9299 13.9794L10.935 0.935496H13.318C13.267 0.663057 13.2414 0.386668 13.2411 0.109619H9.98637L9.98088 13.1539C9.92665 14.6147 8.72384 15.7868 7.25035 15.7868C6.80799 15.787 6.37222 15.6792 5.98102 15.4726C6.49362 16.1879 7.31906 16.6122 8.19894 16.6131ZM17.7692 5.36322V4.63833C16.8935 4.63921 16.0364 4.38433 15.3034 3.90531C15.9462 4.64535 16.8114 5.15686 17.7696 5.36322" fill="#00F2EA"/>
<path d="M15.3034 3.90466C14.5851 3.08273 14.1893 2.02789 14.1897 0.936157H13.3178C13.5459 2.15543 14.2635 3.22828 15.3034 3.90466ZM7.25036 10.315C5.73999 10.3167 4.5161 11.5406 4.51434 13.051C4.51522 14.0679 5.07986 15.0004 5.98059 15.4729C5.64405 15.0088 5.46294 14.4505 5.46294 13.8773C5.46447 12.3669 6.68836 11.1426 8.19896 11.1408C8.48083 11.1408 8.75108 11.1874 9.00617 11.2675V7.94469C8.73878 7.90671 8.46898 7.88718 8.19896 7.88586C8.15154 7.88586 8.10478 7.88849 8.0578 7.88937V10.4416C7.79656 10.3587 7.52434 10.3158 7.25036 10.315Z" fill="#FF004F"/>
<path d="M17.7692 5.36321V7.89287C16.0812 7.89287 14.5179 7.35304 13.2409 6.43672V13.0512C13.2409 16.3545 10.5539 19.042 7.25057 19.042C5.974 19.042 4.79028 18.6391 3.81732 17.956C4.94813 19.1755 6.536 19.8683 8.19895 19.8679C11.5022 19.8679 14.1897 17.1804 14.1897 13.8775V7.26303C15.5089 8.21163 17.0933 8.72116 18.718 8.71918V5.46353C18.3922 5.46353 18.0754 5.42819 17.769 5.36255" fill="#FF004F"/>
<path d="M13.2407 13.051V6.43651C14.5599 7.38533 16.1442 7.89464 17.769 7.89266V5.36322C16.8109 5.15665 15.9458 4.64492 15.3032 3.90466C14.2633 3.22828 13.5456 2.15543 13.3175 0.936157H10.9347L10.9297 13.98C10.875 15.4408 9.67266 16.6133 8.19872 16.6133C7.31906 16.6124 6.4934 16.1879 5.98102 15.4731C5.08028 15.0009 4.51543 14.0683 4.51433 13.0512C4.51609 11.5408 5.73997 10.3169 7.25035 10.3152C7.53179 10.3152 7.80203 10.3613 8.05756 10.4419V7.88959C4.81948 7.96555 2.20837 10.621 2.20837 13.8773C2.20837 15.452 2.82021 16.8855 3.8171 17.9562C4.82211 18.6637 6.02141 19.0429 7.25035 19.0418C10.5539 19.0418 13.2407 16.3543 13.2407 13.051Z" fill="black"/>
</svg>
