<svg width="20" height="20" viewBox="0 0 20 20" fill="none" xmlns="http://www.w3.org/2000/svg">
<path d="M19.4547 5.23336C19.2275 4.38333 18.558 3.71376 17.7079 3.48655C16.1673 3.07361 9.98877 3.07361 9.98877 3.07361C9.98877 3.07361 3.81028 3.07361 2.26961 3.48655C1.41959 3.71376 0.750016 4.38333 0.522802 5.23336C0.109863 6.77403 0.109863 9.98884 0.109863 9.98884C0.109863 9.98884 0.109863 13.2037 0.522802 14.7443C0.750016 15.5944 1.41959 16.2639 2.26961 16.4911C3.81028 16.9041 9.98877 16.9041 9.98877 16.9041C9.98877 16.9041 16.1673 16.9041 17.7079 16.4911C18.558 16.2639 19.2275 15.5944 19.4547 14.7443C19.8677 13.2037 19.8677 9.98884 19.8677 9.98884C19.8677 9.98884 19.8677 6.77403 19.4547 5.23336Z" fill="#FF0000"/>
<path d="M8.013 12.9525L13.1456 9.98882L8.013 7.02515V12.9525Z" fill="white"/>
</svg>
